<?xml version="1.0" encoding="UTF-8" standalone="no"?>
<!-- Created with Inkscape (http://www.inkscape.org/) -->

<svg
   xmlns:dc="http://purl.org/dc/elements/1.1/"
   xmlns:cc="http://creativecommons.org/ns#"
   xmlns:rdf="http://www.w3.org/1999/02/22-rdf-syntax-ns#"
   xmlns:svg="http://www.w3.org/2000/svg"
   xmlns="http://www.w3.org/2000/svg"
   xmlns:sodipodi="http://sodipodi.sourceforge.net/DTD/sodipodi-0.dtd"
   xmlns:inkscape="http://www.inkscape.org/namespaces/inkscape"
   width="500"
   height="500"
   viewBox="0 0 132.29167 132.29167"
   version="1.1"
   id="svg8"
   inkscape:version="0.92.4 (5da689c313, 2019-01-14)"
   sodipodi:docname="abanu.svg">
  <defs
     id="defs2" />
  <sodipodi:namedview
     id="base"
     pagecolor="#ffffff"
     bordercolor="#666666"
     borderopacity="1.0"
     inkscape:pageopacity="0.0"
     inkscape:pageshadow="2"
     inkscape:zoom="1.4142136"
     inkscape:cx="207.90933"
     inkscape:cy="243.61565"
     inkscape:document-units="px"
     inkscape:current-layer="layer9"
     showgrid="false"
     units="px"
     inkscape:window-width="1440"
     inkscape:window-height="837"
     inkscape:window-x="1912"
     inkscape:window-y="-8"
     inkscape:window-maximized="1" />
  <metadata
     id="metadata5">
    <rdf:RDF>
      <cc:Work
         rdf:about="">
        <dc:format>image/svg+xml</dc:format>
        <dc:type
           rdf:resource="http://purl.org/dc/dcmitype/StillImage" />
        <dc:title></dc:title>
      </cc:Work>
    </rdf:RDF>
  </metadata>
  <g
     inkscape:groupmode="layer"
     id="layer4"
     inkscape:label="Layer 3"
     style="display:none">
    <rect
       style="fill:#000000;fill-opacity:1;stroke:#000000;stroke-width:2.64583349;stroke-miterlimit:4;stroke-dasharray:none;stroke-opacity:0.03015077"
       id="rect4531"
       width="122.1689"
       height="125.16232"
       x="3.5546849"
       y="5.258461" />
  </g>
  <g
     inkscape:label="Layer 1"
     inkscape:groupmode="layer"
     id="layer1"
     transform="translate(0,-164.70832)"
     style="display:inline">
    <circle
       id="path3721"
       cx="66.861504"
       cy="230.44135"
       r="53.382965"
       style="fill:#a1ddf9;fill-opacity:1;stroke:#ecffff;stroke-width:1.85208333;stroke-miterlimit:4;stroke-dasharray:none;stroke-opacity:1" />
  </g>
  <g
     inkscape:groupmode="layer"
     id="layer8"
     inkscape:label="mount 3">
    <path
       style="fill:#969696;stroke:none;stroke-width:0.26458335px;stroke-linecap:butt;stroke-linejoin:miter;stroke-opacity:1;fill-opacity:1"
       d="M 12.964584,63.764585 35.454168,37.967709 35.280535,40.001694 33.43672,52.619012 30.308366,75.510257 c 0,0 -9.447979,7.29646 -9.915701,7.670636 -0.467721,0.374177 -3.648229,2.057977 -3.648229,2.057977 L 15.345834,80.433335 13.37684,68.587976 Z"
       id="path4551"
       inkscape:connector-curvature="0" />
  </g>
  <g
     inkscape:groupmode="layer"
     id="layer7"
     inkscape:label="mount 2">
    <path
       style="fill:#ffffff;stroke:none;stroke-width:0.26458335px;stroke-linecap:butt;stroke-linejoin:miter;stroke-opacity:1"
       d="M 57.01771,65.616668 41.671876,53.445835 35.454168,37.967709 l -4.762501,11.509376 -0.926041,11.1125 -5.423959,12.303125 -8.995833,7.540625 3.439583,9.525001 6.217709,8.73125 18.520833,-11.90625 z"
       id="path4548"
       inkscape:connector-curvature="0" />
  </g>
  <g
     inkscape:groupmode="layer"
     id="layer6"
     inkscape:label="mount 1">
    <path
       style="fill:#969696;stroke:none;stroke-width:0.26458335px;stroke-linecap:butt;stroke-linejoin:miter;stroke-opacity:1;fill-opacity:1"
       d="m 38.629168,111.78646 -4.017765,-3.62923 -6.23484,-5.23431 -5.291667,-6.217709 -1.25677,-2.248959 42.156201,-41.490178 -0.03267,0.783619 -0.997355,3.780647 -8.119401,33.618621 -13.722162,20.095229 z"
       id="path4545"
       inkscape:connector-curvature="0" />
  </g>
  <g
     inkscape:groupmode="layer"
     id="layer5"
     inkscape:label="mount">
    <path
       style="fill:#ffffff;fill-opacity:1;stroke:none;stroke-width:0.26458335px;stroke-linecap:butt;stroke-linejoin:miter;stroke-opacity:1"
       d="M 102.71168,105.91217 63.984327,52.966074 56.50078,72.049118 l -9.354434,9.354434 -3.367595,16.276715 -9.167348,10.476963 8.606082,5.98684 10.664052,3.74177 7.670636,1.12253 17.425954,-1.33493 10.847917,-3.86953 10.021094,-6.91224 z"
       id="path4542"
       inkscape:connector-curvature="0" />
    <path
       id="path4756"
       transform="scale(0.26458334)"
       style="fill:#969696;fill-opacity:1;stroke:#969696;stroke-width:1px;stroke-linecap:butt;stroke-linejoin:miter;stroke-opacity:1"
       d="m 222.9668,353.50977 -18.7461,32.46875 h 1.72461 117.37891 l -18.73828,-30.93555 -0.93946,-1.5332 H 300 Z m 66.0631,0.2959 c 6.72478,13.09107 7.24474,14.09402 12.02081,23.5113 -19.33887,0 -69.01757,0 -90.42128,0 3.0642,-5.68577 5.67913,-11.3322 12.56681,-23.57847 15.42718,0 47.00608,-0.17104 65.83366,0.0672 z"
       inkscape:connector-curvature="0"
       sodipodi:nodetypes="ccccccccccccc" />
  </g>
  <g
     inkscape:groupmode="layer"
     id="layer9"
     inkscape:label="A top">
    <path
       id="path4554"
       transform="scale(0.26458334)"
       style="fill:#969696;fill-opacity:1;stroke:#969696;stroke-width:1px;stroke-linecap:butt;stroke-linejoin:miter;stroke-opacity:1"
       d="m 260.21484,285.39258 -28.63672,50.55859 60.10352,-0.35351 z M 252.75,298.5625 c 0.80779,1.69257 19.64339,27.55691 19.38281,28.14844 -11.19318,-0.30368 -26.01558,-0.0412 -35.15624,-0.10157 8.0947,-14.70408 10.74854,-19.01044 15.77343,-28.04687 z"
       inkscape:connector-curvature="0"
       sodipodi:nodetypes="cccccccc" />
    <path
       style="fill:none;stroke:#969696;stroke-width:0.26458335px;stroke-linecap:butt;stroke-linejoin:miter;stroke-opacity:1"
       d="m 62.791635,86.197699 4.081804,-7.203036 5.142839,7.408334 -9.339998,0.0124 z"
       id="path4562"
       inkscape:connector-curvature="0"
       sodipodi:nodetypes="ccccc" />
  </g>
  <g
     style="display:inline"
     transform="translate(0,-164.70832)"
     id="g4539"
     inkscape:groupmode="layer"
     inkscape:label="Layer 1 copy">
    <circle
       style="fill:none;fill-opacity:1;stroke:#fbffff;stroke-width:1.85208333;stroke-miterlimit:4;stroke-dasharray:none;stroke-opacity:1"
       r="53.382965"
       cy="230.44135"
       cx="66.861504"
       id="circle4537" />
  </g>
</svg>
